{
  "accessors": [
    {
      "bufferView": 2,
      "componentType": 5126,
      "count": 2361,
      "max": [
        0.050262149423360825,
        0.06100000441074371,
        0.17233696579933167
      ],
      "min": [
        -0.050262149423360825,
        -0.0624999962747097,
        0.0
      ],
      "type": "VEC3"
    },
    {
      "bufferView": 2,
      "byteOffset": 28332,
      "componentType": 5126,
      "count": 2361,
      "max": [
        1.0,
        1.0,
        1.0
      ],
      "min": [
        -1.0,
        -1.0,
        -1.0
      ],
      "type": "VEC3"
    },
    {
      "bufferView": 3,
      "componentType": 5126,
      "count": 2361,
      "max": [
        1.0,
        1.0,
        0.8512468934059143,
        1.0
      ],
      "min": [
        -1.0,
        -1.0,
        -1.0,
        1.0
      ],
      "type": "VEC4"
    },
    {
      "bufferView": 1,
      "componentType": 5126,
      "count": 2361,
      "max": [
        0.9930867552757263,
        0.9937936663627625
      ],
      "min": [
        0.006738454103469849,
        0.006936928257346153
      ],
      "type": "VEC2"
    },
    {
      "bufferView": 1,
      "byteOffset": 18888,
      "componentType": 5126,
      "count": 2361,
      "max": [
        0.9930867552757263,
        0.9937936663627625
      ],
      "min": [
        0.006738454103469849,
        0.006936928257346153
      ],
      "type": "VEC2"
    },
    {
      "bufferView": 0,
      "componentType": 5125,
      "count": 8472,
      "type": "SCALAR"
    }
  ],
  "asset": {
    "extras": {
      "author": "Orfeas41 (https://sketchfab.com/Orfeas41)",
      "license": "CC-BY-4.0 (http://creativecommons.org/licenses/by/4.0/)",
      "source": "https://sketchfab.com/3d-models/speaker-black-secondary-029cfbe02f0b4c3fadedd7a9a0b7b5dd",
      "title": "Speaker Black Secondary"
    },
    "generator": "Sketchfab-16.14.0",
    "version": "2.0"
  },
  "bufferViews": [
    {
      "buffer": 0,
      "byteLength": 33888,
      "name": "floatBufferViews",
      "target": 34963
    },
    {
      "buffer": 0,
      "byteLength": 37776,
      "byteOffset": 33888,
      "byteStride": 8,
      "name": "floatBufferViews",
      "target": 34962
    },
    {
      "buffer": 0,
      "byteLength": 56664,
      "byteOffset": 71664,
      "byteStride": 12,
      "name": "floatBufferViews",
      "target": 34962
    },
    {
      "buffer": 0,
      "byteLength": 37776,
      "byteOffset": 128328,
      "byteStride": 16,
      "name": "floatBufferViews",
      "target": 34962
    }
  ],
  "buffers": [
    {
      "byteLength": 166104,
      "uri": "model2.bin"
    }
  ],
  "images": [
    {
      "uri": "model2/speaker_02_baseColor.jpeg"
    },
    {
      "uri": "model2/speaker_02_metallicRoughness.png"
    },
    {
      "uri": "model2/speaker_02_normal.png"
    }
  ],
  "materials": [
    {
      "doubleSided": true,
      "name": "speaker_02",
      "normalTexture": {
        "index": 2
      },
      "occlusionTexture": {
        "index": 1
      },
      "pbrMetallicRoughness": {
        "baseColorTexture": {
          "index": 0
        },
        "metallicRoughnessTexture": {
          "index": 1
        }
      }
    }
  ],
  "meshes": [
    {
      "name": "speaker_02_SM_speaker_02_0",
      "primitives": [
        {
          "attributes": {
            "NORMAL": 1,
            "POSITION": 0,
            "TANGENT": 2,
            "TEXCOORD_0": 3,
            "TEXCOORD_1": 4
          },
          "indices": 5,
          "material": 0,
          "mode": 4
        }
      ]
    }
  ],
  "nodes": [
    {
      "children": [
        1
      ],
      "matrix": [
        1.0,
        0.0,
        0.0,
        0.0,
        0.0,
        2.220446049250313e-16,
        -1.0,
        0.0,
        0.0,
        1.0,
        2.220446049250313e-16,
        0.0,
        0.0,
        0.0,
        0.0,
        1.0
      ],
      "name": "Sketchfab_model"
    },
    {
      "children": [
        2
      ],
      "matrix": [
        0.009999999776482582,
        0.0,
        0.0,
        0.0,
        0.0,
        0.0,
        0.009999999776482582,
        0.0,
        0.0,
        -0.009999999776482582,
        0.0,
        0.0,
        0.0,
        0.0,
        0.0,
        1.0
      ],
      "name": "3b56ac8582394f2ba398f083f1b58bae.fbx"
    },
    {
      "children": [
        3
      ],
      "name": "RootNode"
    },
    {
      "children": [
        4
      ],
      "matrix": [
        100.0,
        0.0,
        0.0,
        0.0,
        0.0,
        -1.629206793918314e-05,
        -99.99999999999868,
        0.0,
        0.0,
        99.99999999999868,
        -1.629206793918314e-05,
        0.0,
        0.0,
        0.0,
        0.0,
        1.0
      ],
      "name": "speaker_02_SM"
    },
    {
      "mesh": 0,
      "name": "speaker_02_SM_speaker_02_0"
    }
  ],
  "samplers": [
    {
      "magFilter": 9729,
      "minFilter": 9987,
      "wrapS": 10497,
      "wrapT": 10497
    }
  ],
  "scene": 0,
  "scenes": [
    {
      "name": "Sketchfab_Scene",
      "nodes": [
        0
      ]
    }
  ],
  "textures": [
    {
      "sampler": 0,
      "source": 0
    },
    {
      "sampler": 0,
      "source": 1
    },
    {
      "sampler": 0,
      "source": 2
    }
  ]
}
