{
  "accessors": [
    {
      "bufferView": 2,
      "componentType": 5126,
      "count": 421,
      "max": [
        4.613550186157227,
        55.447200775146484,
        3.9477200508117676
      ],
      "min": [
        -2.65844988822937,
        37.59400177001953,
        0.982122004032135
      ],
      "type": "VEC3"
    },
    {
      "bufferView": 2,
      "byteOffset": 5052,
      "componentType": 5126,
      "count": 421,
      "max": [
        0.9920337200164795,
        0.9566934704780579,
        0.8921454548835754
      ],
      "min": [
        -0.9929882884025574,
        -0.9317079782485962,
        -0.6769973635673523
      ],
      "type": "VEC3"
    },
    {
      "bufferView": 1,
      "componentType": 5126,
      "count": 421,
      "max": [
        2.002000093460083,
        0.9955999851226807
      ],
      "min": [
        0.024399999529123306,
        0.005400000140070915
      ],
      "type": "VEC2"
    },
    {
      "bufferView": 0,
      "componentType": 5125,
      "count": 1260,
      "type": "SCALAR"
    },
    {
      "bufferView": 2,
      "byteOffset": 10104,
      "componentType": 5126,
      "count": 1486,
      "max": [
        4.899549961090088,
        55.488800048828125,
        3.186530113220215
      ],
      "min": [
        -2.9444499015808105,
        37.582801818847656,
        0.46292799711227417
      ],
      "type": "VEC3"
    },
    {
      "bufferView": 2,
      "byteOffset": 27936,
      "componentType": 5126,
      "count": 1486,
      "max": [
        1.0,
        1.0,
        1.0
      ],
      "min": [
        -1.0,
        -1.0,
        -1.0
      ],
      "type": "VEC3"
    },
    {
      "bufferView": 1,
      "byteOffset": 3368,
      "componentType": 5126,
      "count": 1486,
      "max": [
        0.8661999702453613,
        0.0215000007301569
      ],
      "min": [
        0.001500000013038516,
        -0.9804999828338623
      ],
      "type": "VEC2"
    },
    {
      "bufferView": 0,
      "byteOffset": 5040,
      "componentType": 5125,
      "count": 3336,
      "type": "SCALAR"
    },
    {
      "bufferView": 2,
      "byteOffset": 45768,
      "componentType": 5126,
      "count": 362,
      "max": [
        3.467550039291382,
        55.52159881591797,
        1.526129961013794
      ],
      "min": [
        -1.5124499797821045,
        54.74879837036133,
        1.0861300230026245
      ],
      "type": "VEC3"
    },
    {
      "bufferView": 2,
      "byteOffset": 50112,
      "componentType": 5126,
      "count": 362,
      "max": [
        0.9977139234542847,
        0.9780470132827759,
        0.999845027923584
      ],
      "min": [
        -0.9977139234542847,
        -0.7625280022621155,
        -0.996392548084259
      ],
      "type": "VEC3"
    },
    {
      "bufferView": 1,
      "byteOffset": 15256,
      "componentType": 5126,
      "count": 362,
      "max": [
        42.31119918823242,
        -40.951698303222656
      ],
      "min": [
        41.68880081176758,
        -41.048301696777344
      ],
      "type": "VEC2"
    },
    {
      "bufferView": 0,
      "byteOffset": 18384,
      "componentType": 5125,
      "count": 1044,
      "type": "SCALAR"
    },
    {
      "bufferView": 2,
      "byteOffset": 54456,
      "componentType": 5126,
      "count": 356,
      "max": [
        4.285820007324219,
        53.34090042114258,
        5.213129997253418
      ],
      "min": [
        -2.3307199478149414,
        38.27470016479492,
        2.1838901042938232
      ],
      "type": "VEC3"
    },
    {
      "bufferView": 2,
      "byteOffset": 58728,
      "componentType": 5126,
      "count": 356,
      "max": [
        0.940278172492981,
        0.4107882082462311,
        0.9899190068244934
      ],
      "min": [
        -0.9765899777412415,
        -0.8957791924476624,
        -0.6982593536376953
      ],
      "type": "VEC3"
    },
    {
      "bufferView": 1,
      "byteOffset": 18152,
      "componentType": 5126,
      "count": 356,
      "max": [
        1.7519999742507935,
        0.9940999746322632
      ],
      "min": [
        -0.9901999831199646,
        -0.826200008392334
      ],
      "type": "VEC2"
    },
    {
      "bufferView": 0,
      "byteOffset": 22560,
      "componentType": 5125,
      "count": 1035,
      "type": "SCALAR"
    },
    {
      "bufferView": 2,
      "byteOffset": 63000,
      "componentType": 5126,
      "count": 1494,
      "max": [
        4.274350166320801,
        55.486000061035156,
        5.178120136260986
      ],
      "min": [
        -2.3192501068115234,
        43.63759994506836,
        0.9069169759750366
      ],
      "type": "VEC3"
    },
    {
      "bufferView": 2,
      "byteOffset": 80928,
      "componentType": 5126,
      "count": 1494,
      "max": [
        1.0,
        1.0,
        0.9999690055847168
      ],
      "min": [
        -1.0,
        -1.0,
        -0.999721109867096
      ],
      "type": "VEC3"
    },
    {
      "bufferView": 1,
      "byteOffset": 21000,
      "componentType": 5126,
      "count": 1494,
      "max": [
        1.9917000532150269,
        1.9955999851226807
      ],
      "min": [
        1.0117000341415405,
        1.0126999616622925
      ],
      "type": "VEC2"
    },
    {
      "bufferView": 0,
      "byteOffset": 26700,
      "componentType": 5125,
      "count": 3771,
      "type": "SCALAR"
    },
    {
      "bufferView": 2,
      "byteOffset": 98856,
      "componentType": 5126,
      "count": 2666,
      "max": [
        4.233150005340576,
        55.40919876098633,
        3.8573200702667236
      ],
      "min": [
        -2.278049945831299,
        38.603599548339844,
        2.186919927597046
      ],
      "type": "VEC3"
    },
    {
      "bufferView": 2,
      "byteOffset": 130848,
      "componentType": 5126,
      "count": 2666,
      "max": [
        0.9999690055847168,
        0.99534010887146,
        0.9995043277740479
      ],
      "min": [
        -0.9999690055847168,
        -1.0,
        -0.9995043277740479
      ],
      "type": "VEC3"
    },
    {
      "bufferView": 1,
      "byteOffset": 32952,
      "componentType": 5126,
      "count": 2666,
      "max": [
        0.9926999807357788,
        0.9911999702453613
      ],
      "min": [
        0.006300000008195639,
        0.00929998978972435
      ],
      "type": "VEC2"
    },
    {
      "bufferView": 0,
      "byteOffset": 41784,
      "componentType": 5125,
      "count": 7344,
      "type": "SCALAR"
    },
    {
      "bufferView": 2,
      "byteOffset": 162840,
      "componentType": 5126,
      "count": 30,
      "max": [
        5.035550117492676,
        45.725799560546875,
        4.0181097984313965
      ],
      "min": [
        -3.0804500579833984,
        45.45500183105469,
        3.5321099758148193
      ],
      "type": "VEC3"
    },
    {
      "bufferView": 2,
      "byteOffset": 163200,
      "componentType": 5126,
      "count": 30,
      "max": [
        0.40843725204467773,
        0.9472338557243347,
        0.06313315778970718
      ],
      "min": [
        -0.40843725204467773,
        0.9111289978027344,
        0.0471041202545166
      ],
      "type": "VEC3"
    },
    {
      "bufferView": 1,
      "byteOffset": 54280,
      "componentType": 5126,
      "count": 30,
      "max": [
        16.507200241088867,
        -8.969630241394043
      ],
      "min": [
        15.492799758911133,
        -9.030369758605957
      ],
      "type": "VEC2"
    },
    {
      "bufferView": 0,
      "byteOffset": 71160,
      "componentType": 5125,
      "count": 78,
      "type": "SCALAR"
    },
    {
      "bufferView": 2,
      "byteOffset": 163560,
      "componentType": 5126,
      "count": 5097,
      "max": [
        5.101950168609619,
        55.83720016479492,
        5.488120079040527
      ],
      "min": [
        -3.146850109100342,
        37.49399948120117,
        0.6985160112380981
      ],
      "type": "VEC3"
    },
    {
      "bufferView": 2,
      "byteOffset": 224724,
      "componentType": 5126,
      "count": 5097,
      "max": [
        1.0,
        0.999845027923584,
        1.0
      ],
      "min": [
        -1.0,
        -1.0,
        -1.0
      ],
      "type": "VEC3"
    },
    {
      "bufferView": 1,
      "byteOffset": 54520,
      "componentType": 5126,
      "count": 5097,
      "max": [
        1.9785000085830688,
        1.9785000085830688
      ],
      "min": [
        0.3418000042438507,
        0.04690000042319298
      ],
      "type": "VEC2"
    },
    {
      "bufferView": 0,
      "byteOffset": 71472,
      "componentType": 5125,
      "count": 13863,
      "type": "SCALAR"
    },
    {
      "bufferView": 2,
      "byteOffset": 285888,
      "componentType": 5126,
      "count": 7137,
      "max": [
        5.101550102233887,
        55.79840087890625,
        5.372920036315918
      ],
      "min": [
        -3.1464500427246094,
        37.44279861450195,
        0.7049170136451721
      ],
      "type": "VEC3"
    },
    {
      "bufferView": 2,
      "byteOffset": 371532,
      "componentType": 5126,
      "count": 7137,
      "max": [
        0.9999690055847168,
        0.9991022348403931,
        1.0
      ],
      "min": [
        -0.9999690055847168,
        -0.999721109867096,
        -0.9998760223388672
      ],
      "type": "VEC3"
    },
    {
      "bufferView": 1,
      "byteOffset": 95296,
      "componentType": 5126,
      "count": 7137,
      "max": [
        12.6318998336792,
        0.5375450253486633
      ],
      "min": [
        -10.955499649047852,
        -9.958539962768555
      ],
      "type": "VEC2"
    },
    {
      "bufferView": 0,
      "byteOffset": 126924,
      "componentType": 5125,
      "count": 20184,
      "type": "SCALAR"
    },
    {
      "bufferView": 2,
      "byteOffset": 457176,
      "componentType": 5126,
      "count": 5500,
      "max": [
        4.882460117340088,
        52.82270050048828,
        2.797070026397705
      ],
      "min": [
        -2.8925600051879883,
        40.31880187988281,
        0.42023399472236633
      ],
      "type": "VEC3"
    },
    {
      "bufferView": 2,
      "byteOffset": 523176,
      "componentType": 5126,
      "count": 5500,
      "max": [
        1.0,
        0.9998760223388672,
        0.9999690055847168
      ],
      "min": [
        -1.0,
        -0.9998760223388672,
        -0.9995043277740479
      ],
      "type": "VEC3"
    },
    {
      "bufferView": 1,
      "byteOffset": 152392,
      "componentType": 5126,
      "count": 5500,
      "max": [
        0.9990000128746033,
        0.9951000213623047
      ],
      "min": [
        0.007799999788403511,
        0.007799980230629444
      ],
      "type": "VEC2"
    },
    {
      "bufferView": 0,
      "byteOffset": 207660,
      "componentType": 5125,
      "count": 15540,
      "type": "SCALAR"
    },
    {
      "bufferView": 2,
      "byteOffset": 589176,
      "componentType": 5126,
      "count": 432,
      "max": [
        4.5967302322387695,
        52.5171012878418,
        2.479530096054077
      ],
      "min": [
        -2.606829881668091,
        40.60340118408203,
        0.7208319902420044
      ],
      "type": "VEC3"
    },
    {
      "bufferView": 2,
      "byteOffset": 594360,
      "componentType": 5126,
      "count": 432,
      "max": [
        1.0,
        1.0,
        0.9848628044128418
      ],
      "min": [
        -1.0,
        -1.0,
        -0.9848628044128418
      ],
      "type": "VEC3"
    },
    {
      "bufferView": 1,
      "byteOffset": 196392,
      "componentType": 5126,
      "count": 432,
      "max": [
        0.989300012588501,
        0.9872999787330627
      ],
      "min": [
        0.002899999963119626,
        0.007300020195543766
      ],
      "type": "VEC2"
    },
    {
      "bufferView": 0,
      "byteOffset": 269820,
      "componentType": 5125,
      "count": 840,
      "type": "SCALAR"
    },
    {
      "bufferView": 2,
      "byteOffset": 599544,
      "componentType": 5126,
      "count": 996,
      "max": [
        4.901340007781982,
        53.135799407958984,
        3.1036601066589355
      ],
      "min": [
        -2.911439895629883,
        40.02790069580078,
        0.1269969940185547
      ],
      "type": "VEC3"
    },
    {
      "bufferView": 2,
      "byteOffset": 611496,
      "componentType": 5126,
      "count": 996,
      "max": [
        0.9849545359611511,
        0.9460262656211853,
        0.9439166784286499
      ],
      "min": [
        -0.9849545359611511,
        -0.9460262656211853,
        -0.9388139843940735
      ],
      "type": "VEC3"
    },
    {
      "bufferView": 1,
      "byteOffset": 199848,
      "componentType": 5126,
      "count": 996,
      "max": [
        60.17919921875,
        1.1641900539398193
      ],
      "min": [
        -0.17907699942588806,
        -43.18009948730469
      ],
      "type": "VEC2"
    },
    {
      "bufferView": 0,
      "byteOffset": 273180,
      "componentType": 5125,
      "count": 3780,
      "type": "SCALAR"
    }
  ],
  "asset": {
    "extras": {
      "author": "Car2022 (https://sketchfab.com/Car2022)",
      "license": "CC-BY-4.0 (http://creativecommons.org/licenses/by/4.0/)",
      "source": "https://sketchfab.com/3d-models/mercedes-sl65-84c255b8a34b496bb1cb076df5ff6e70",
      "title": "Mercedes SL65"
    },
    "generator": "Sketchfab-16.14.0",
    "version": "2.0"
  },
  "bufferViews": [
    {
      "buffer": 0,
      "byteLength": 288300,
      "name": "floatBufferViews",
      "target": 34963
    },
    {
      "buffer": 0,
      "byteLength": 207816,
      "byteOffset": 288300,
      "byteStride": 8,
      "name": "floatBufferViews",
      "target": 34962
    },
    {
      "buffer": 0,
      "byteLength": 623448,
      "byteOffset": 496116,
      "byteStride": 12,
      "name": "floatBufferViews",
      "target": 34962
    }
  ],
  "buffers": [
    {
      "byteLength": 1119564,
      "uri": "scene.bin"
    }
  ],
  "extensionsUsed": [
    "KHR_materials_clearcoat"
  ],
  "images": [
    {
      "uri": "textures/Badges1Mtl_baseColor.png"
    },
    {
      "uri": "textures/Badges1Mtl_emissive.png"
    },
    {
      "uri": "textures/Chassis1Mtl_baseColor.png"
    },
    {
      "uri": "textures/Glass1Mtl_baseColor.png"
    },
    {
      "uri": "textures/Glass1Mtl_emissive.png"
    },
    {
      "uri": "textures/Interior1Mtl_baseColor.png"
    },
    {
      "uri": "textures/Lights1Mtl_baseColor.png"
    },
    {
      "uri": "textures/Miscellaneous1Mtl_baseColor.png"
    },
    {
      "uri": "textures/Paint1Mtl_emissive.png"
    },
    {
      "uri": "textures/Rim1Mtl_baseColor.png"
    },
    {
      "uri": "textures/Rotor1Mtl_baseColor.png"
    }
  ],
  "materials": [
    {
      "alphaMode": "BLEND",
      "emissiveTexture": {
        "index": 1
      },
      "name": "Badges1Mtl",
      "pbrMetallicRoughness": {
        "baseColorTexture": {
          "index": 0
        },
        "metallicFactor": 0.05,
        "roughnessFactor": 0.0
      }
    },
    {
      "doubleSided": true,
      "emissiveTexture": {
        "index": 2
      },
      "name": "Chassis1Mtl",
      "pbrMetallicRoughness": {
        "baseColorTexture": {
          "index": 2
        },
        "metallicFactor": 0.05,
        "roughnessFactor": 0.0
      }
    },
    {
      "name": "Exhausts1Mtl",
      "pbrMetallicRoughness": {
        "baseColorFactor": [
          0.598942,
          0.605484,
          0.645555,
          1.0
        ],
        "roughnessFactor": 0.0
      }
    },
    {
      "alphaMode": "BLEND",
      "doubleSided": true,
      "emissiveTexture": {
        "index": 4
      },
      "name": "Glass1Mtl",
      "pbrMetallicRoughness": {
        "baseColorFactor": [
          0.1797670695453292,
          0.398045601540723,
          0.33669606601427166,
          1.0
        ],
        "baseColorTexture": {
          "index": 3
        },
        "roughnessFactor": 0.0
      }
    },
    {
      "emissiveTexture": {
        "index": 5
      },
      "name": "Interior1Mtl",
      "pbrMetallicRoughness": {
        "baseColorTexture": {
          "index": 5
        },
        "metallicFactor": 0.05,
        "roughnessFactor": 0.37777777777777777
      }
    },
    {
      "emissiveTexture": {
        "index": 6
      },
      "extensions": {
        "KHR_materials_clearcoat": {
          "clearcoatFactor": 1.0,
          "clearcoatRoughnessFactor": 0.0
        }
      },
      "name": "Lights1Mtl",
      "pbrMetallicRoughness": {
        "baseColorTexture": {
          "index": 6
        },
        "metallicFactor": 0.05,
        "roughnessFactor": 0.0
      }
    },
    {
      "name": "Mirrors1Mtl",
      "pbrMetallicRoughness": {
        "baseColorFactor": [
          0.9504074916579607,
          0.9579625626262076,
          1.0,
          1.0
        ],
        "roughnessFactor": 0.0
      }
    },
    {
      "emissiveTexture": {
        "index": 7
      },
      "name": "Miscellaneous1Mtl",
      "pbrMetallicRoughness": {
        "baseColorTexture": {
          "index": 7
        },
        "metallicFactor": 0.05,
        "roughnessFactor": 0.0
      }
    },
    {
      "emissiveTexture": {
        "index": 8
      },
      "extensions": {
        "KHR_materials_clearcoat": {
          "clearcoatFactor": 1.0,
          "clearcoatRoughnessFactor": 0.0
        }
      },
      "name": "Paint1Mtl",
      "pbrMetallicRoughness": {
        "baseColorFactor": [
          0.35659575031430363,
          0.35760190279147885,
          0.3636653735842167,
          1.0
        ],
        "roughnessFactor": 0.4360655737704918
      }
    },
    {
      "emissiveTexture": {
        "index": 9
      },
      "name": "Rim1Mtl",
      "pbrMetallicRoughness": {
        "baseColorTexture": {
          "index": 9
        },
        "metallicFactor": 0.05,
        "roughnessFactor": 0.0
      }
    },
    {
      "emissiveTexture": {
        "index": 10
      },
      "name": "Rotor1Mtl",
      "pbrMetallicRoughness": {
        "baseColorTexture": {
          "index": 10
        },
        "metallicFactor": 0.05,
        "roughnessFactor": 0.0
      }
    },
    {
      "name": "Tire1Mtl",
      "pbrMetallicRoughness": {
        "baseColorFactor": [
          0.00258583,
          0.00258583,
          0.00258583,
          1.0
        ],
        "metallicFactor": 0.05,
        "roughnessFactor": 0.21457194899817855
      }
    }
  ],
  "meshes": [
    {
      "name": "Object_0",
      "primitives": [
        {
          "attributes": {
            "NORMAL": 1,
            "POSITION": 0,
            "TEXCOORD_0": 2
          },
          "indices": 3,
          "material": 0,
          "mode": 4
        }
      ]
    },
    {
      "name": "Object_1",
      "primitives": [
        {
          "attributes": {
            "NORMAL": 5,
            "POSITION": 4,
            "TEXCOORD_0": 6
          },
          "indices": 7,
          "material": 1,
          "mode": 4
        }
      ]
    },
    {
      "name": "Object_2",
      "primitives": [
        {
          "attributes": {
            "NORMAL": 9,
            "POSITION": 8,
            "TEXCOORD_0": 10
          },
          "indices": 11,
          "material": 2,
          "mode": 4
        }
      ]
    },
    {
      "name": "Object_3",
      "primitives": [
        {
          "attributes": {
            "NORMAL": 13,
            "POSITION": 12,
            "TEXCOORD_0": 14
          },
          "indices": 15,
          "material": 3,
          "mode": 4
        }
      ]
    },
    {
      "name": "Object_4",
      "primitives": [
        {
          "attributes": {
            "NORMAL": 17,
            "POSITION": 16,
            "TEXCOORD_0": 18
          },
          "indices": 19,
          "material": 4,
          "mode": 4
        }
      ]
    },
    {
      "name": "Object_5",
      "primitives": [
        {
          "attributes": {
            "NORMAL": 21,
            "POSITION": 20,
            "TEXCOORD_0": 22
          },
          "indices": 23,
          "material": 5,
          "mode": 4
        }
      ]
    },
    {
      "name": "Object_6",
      "primitives": [
        {
          "attributes": {
            "NORMAL": 25,
            "POSITION": 24,
            "TEXCOORD_0": 26
          },
          "indices": 27,
          "material": 6,
          "mode": 4
        }
      ]
    },
    {
      "name": "Object_7",
      "primitives": [
        {
          "attributes": {
            "NORMAL": 29,
            "POSITION": 28,
            "TEXCOORD_0": 30
          },
          "indices": 31,
          "material": 7,
          "mode": 4
        }
      ]
    },
    {
      "name": "Object_8",
      "primitives": [
        {
          "attributes": {
            "NORMAL": 33,
            "POSITION": 32,
            "TEXCOORD_0": 34
          },
          "indices": 35,
          "material": 8,
          "mode": 4
        }
      ]
    },
    {
      "name": "Object_9",
      "primitives": [
        {
          "attributes": {
            "NORMAL": 37,
            "POSITION": 36,
            "TEXCOORD_0": 38
          },
          "indices": 39,
          "material": 9,
          "mode": 4
        }
      ]
    },
    {
      "name": "Object_10",
      "primitives": [
        {
          "attributes": {
            "NORMAL": 41,
            "POSITION": 40,
            "TEXCOORD_0": 42
          },
          "indices": 43,
          "material": 10,
          "mode": 4
        }
      ]
    },
    {
      "name": "Object_11",
      "primitives": [
        {
          "attributes": {
            "NORMAL": 45,
            "POSITION": 44,
            "TEXCOORD_0": 46
          },
          "indices": 47,
          "material": 11,
          "mode": 4
        }
      ]
    }
  ],
  "nodes": [
    {
      "children": [
        1
      ],
      "matrix": [
        1.0,
        0.0,
        0.0,
        0.0,
        0.0,
        2.220446049250313e-16,
        -1.0,
        0.0,
        0.0,
        1.0,
        2.220446049250313e-16,
        0.0,
        0.0,
        0.0,
        0.0,
        1.0
      ],
      "name": "Sketchfab_model"
    },
    {
      "children": [
        2,
        3,
        4,
        5,
        6,
        7,
        8,
        9,
        10,
        11,
        12,
        13
      ],
      "name": "2010 Mercedes-Benz SL 65 AMG Black Series.obj.cleaner.materialmerger.gles"
    },
    {
      "mesh": 0,
      "name": "Object_2"
    },
    {
      "mesh": 1,
      "name": "Object_3"
    },
    {
      "mesh": 2,
      "name": "Object_4"
    },
    {
      "mesh": 3,
      "name": "Object_5"
    },
    {
      "mesh": 4,
      "name": "Object_6"
    },
    {
      "mesh": 5,
      "name": "Object_7"
    },
    {
      "mesh": 6,
      "name": "Object_8"
    },
    {
      "mesh": 7,
      "name": "Object_9"
    },
    {
      "mesh": 8,
      "name": "Object_10"
    },
    {
      "mesh": 9,
      "name": "Object_11"
    },
    {
      "mesh": 10,
      "name": "Object_12"
    },
    {
      "mesh": 11,
      "name": "Object_13"
    }
  ],
  "samplers": [
    {
      "magFilter": 9729,
      "minFilter": 9987,
      "wrapS": 10497,
      "wrapT": 10497
    }
  ],
  "scene": 0,
  "scenes": [
    {
      "name": "Sketchfab_Scene",
      "nodes": [
        0
      ]
    }
  ],
  "textures": [
    {
      "sampler": 0,
      "source": 0
    },
    {
      "sampler": 0,
      "source": 1
    },
    {
      "sampler": 0,
      "source": 2
    },
    {
      "sampler": 0,
      "source": 3
    },
    {
      "sampler": 0,
      "source": 4
    },
    {
      "sampler": 0,
      "source": 5
    },
    {
      "sampler": 0,
      "source": 6
    },
    {
      "sampler": 0,
      "source": 7
    },
    {
      "sampler": 0,
      "source": 8
    },
    {
      "sampler": 0,
      "source": 9
    },
    {
      "sampler": 0,
      "source": 10
    }
  ]
}
